<?xml version="1.0" standalone="no"?>
<!DOCTYPE svg PUBLIC "-//W3C//DTD SVG 20010904//EN"
 "http://www.w3.org/TR/2001/REC-SVG-20010904/DTD/svg10.dtd">
<svg version="1.0" xmlns="http://www.w3.org/2000/svg"
 width="512.000000pt" height="512.000000pt" viewBox="0 0 512.000000 512.000000"
 preserveAspectRatio="xMidYMid meet">

<g transform="translate(0.000000,512.000000) scale(0.100000,-0.100000)"
fill="hsl(180deg 4% 24%)" stroke="none">
<path d="M1948 5110 c-255 -43 -475 -208 -584 -437 -69 -145 -97 -350 -54
-393 26 -26 83 -27 108 -2 14 14 21 41 26 97 21 229 148 420 347 521 101 50
183 67 309 62 129 -6 223 -36 323 -104 160 -110 256 -275 273 -472 8 -91 28
-122 81 -122 55 0 73 27 73 113 0 197 -113 427 -276 563 -170 143 -412 210
-626 174z"/>
<path d="M1961 4534 c-53 -27 -96 -75 -129 -144 -16 -32 -17 -137 -19 -1215
-2 -649 -5 -1190 -8 -1202 -7 -29 -57 -55 -90 -47 -17 4 -76 68 -178 193 -168
203 -203 239 -276 276 -151 76 -334 47 -470 -75 l-43 -40 477 -917 c263 -505
498 -949 524 -988 121 -185 323 -320 538 -361 116 -22 1272 -20 1381 2 156 32
284 99 401 209 123 117 204 249 258 422 l28 88 0 975 0 975 -27 46 c-91 155
-279 185 -406 65 -67 -63 -76 -92 -82 -279 l-5 -169 -28 -24 c-34 -29 -67 -31
-98 -5 -24 19 -24 21 -29 278 -5 237 -7 262 -27 305 -65 142 -228 197 -353
120 -50 -30 -104 -103 -120 -160 -5 -21 -10 -146 -10 -283 0 -234 -1 -248 -21
-273 -29 -37 -89 -37 -118 0 -20 26 -21 38 -21 334 0 344 -3 365 -67 440 -93
109 -253 120 -359 27 -90 -79 -88 -72 -94 -485 l-5 -364 -24 -19 c-13 -10 -32
-19 -42 -19 -27 0 -67 20 -76 39 -4 9 -10 489 -13 1066 l-5 1050 -22 40 c-28
52 -88 110 -135 130 -59 24 -145 20 -207 -11z"/>
</g>
</svg>